<svg xmlns="http://www.w3.org/2000/svg" version="1.1" xmlnsXlink="http://www.w3.org/1999/xlink" xmlnssvgjs="http://svgjs.dev/svgjs" width="1000" height="247" viewBox="0 0 1000 247"><g transform="matrix(1,0,0,1,-0.6056348047761162,0.06216126174371084)"><svg viewBox="0 0 396 98" data-background-color="#ffffff" preserveAspectRatio="xMidYMid meet" height="247" width="1000" xmlns="http://www.w3.org/2000/svg" xmlnsXlink="http://www.w3.org/1999/xlink"><g id="tight-bounds" transform="matrix(1,0,0,1,0.24008861730862918,-0.024506245347907907)"><svg viewBox="0 0 395.52 98.04889610851134" height="98.04889610851134" width="395.52"><g><svg viewBox="0 0 395.52 98.04889610851134" height="98.04889610851134" width="395.52"><g><svg viewBox="0 0 395.52 98.04889610851134" height="98.04889610851134" width="395.52"><g><svg viewBox="0 0 395.52 98.04889610851134" height="98.04889610851134" width="395.52"><g><svg viewBox="0 0 395.52 98.04889610851134" height="98.04889610851134" width="395.52"><path d="M394.594 21.03C392.735 10.852 387.435 8.023 387.435 8.023 371.165-2.46 350.86-0.201 332.619 1.306 300.414 1.367 268.339 3.606 236.208 4.807 168.767 4.99 100.749 1.977 33.643 9.407 27.339 11.687-6.54 9.855 1.121 22.332 3.129 27.523 10.456 33.283 10.232 38.046 11.236 38.881 12.631 36.967 13.226 38.168 15.309 41.405 18.711 39.878 21.501 41.792 17.614 46.901 20.403 51.155 23.062 55.613 18.377 56.773 12.371 56.223 9.675 60.07 9.396 62.859 7.89 62.33 6.235 62.208 5.026 62.126 2.59 62.431 2.999 63.307 4.394 66.299-1.594 68.029 2.162 70.96-0.422 74.135 3.948 76.883 3.353 80.323 3.278 81.015 3.687 81.606 4.338 81.769 7.22 82.644 3.018 84.354 3.464 86.206 33.029 98.867 65.104 90.114 95.394 95.936 103.259 91.865 97.346 97.381 100.489 96.526 102.943 95.528 104.728 99.661 107.499 97.32 107.927 96.648 107.276 95.06 108.8 95.366 109.6 95.528 110.307 95.488 110.418 94.551 110.586 93.147 109.117 94.022 108.726 93.289 112.947 89.585 111.906 98.399 115.866 98.032 115.68 96.953 114.528 95.406 116.889 95.61 119.232 94.063 119.306 92.781 121.389 96.261 121.463 97.014 121.835 97.544 122.43 97.91 128.938 94.124 135.409 99.253 142.233 97.544 146.417 95.671 150.433 98.561 154.672 97.849 156.16 97.279 157.666 96.261 159.098 97.971 176.632 98.337 195.319 96.811 211.943 98.032 256.364 95.752 303.835 98.968 350.674 95.956 361.719 94.796 373.192 93.147 383.958 91.824 383.958 91.824 392.679 88.201 392.679 71.917S394.538 57.668 394.817 44.702C395.096 31.736 396.398 31.207 394.538 21.03Z" opacity="1" fill="#22c55e" data-fill-palette-color="tertiary"></path><g transform="matrix(1,0,0,1,55.76832,26.230666666666668)"><svg width="283.98335999999995" viewBox="4 -38.599998474121094 245.74000549316406 39.44999694824219" height="45.587562775178014" data-palette-color="#ffffff"><path d="M13-7.7L26.8-7.7 26.8 0 4 0 4-37.9 13-37.9 13-7.7ZM50.05 0.85Q43.75 0.85 39.35-1.73 34.95-4.3 32.75-8.78 30.55-13.25 30.55-18.9L30.55-18.9Q30.55-24.45 32.75-28.9 34.95-33.35 39.35-35.98 43.75-38.6 50.05-38.6L50.05-38.6Q56.25-38.6 60.65-35.98 65.05-33.35 67.27-28.88 69.5-24.4 69.5-18.9L69.5-18.9Q69.5-13.25 67.27-8.78 65.05-4.3 60.67-1.73 56.3 0.85 50.05 0.85L50.05 0.85ZM50.05-6.75Q54.9-6.75 57.6-10.15 60.3-13.55 60.3-19.05L60.3-19.05Q60.3-22.5 59.1-25.2 57.9-27.9 55.57-29.45 53.25-31 50.05-31L50.05-31Q45.1-31 42.42-27.65 39.75-24.3 39.75-18.9L39.75-18.9Q39.75-13.4 42.4-10.08 45.05-6.75 50.05-6.75L50.05-6.75ZM88.59-37.9Q99-37.9 104.27-33.08 109.55-28.25 109.55-18.9L109.55-18.9Q109.55-9.5 104.3-4.75 99.05 0 88.59 0L88.59 0 75.25 0 75.25-37.9 88.59-37.9ZM100.45-19.05Q100.45-24.9 97.55-27.6 94.65-30.3 88.59-30.3L88.59-30.3 84.25-30.3 84.25-7.6 88.59-7.6Q94.75-7.6 97.59-10.33 100.45-13.05 100.45-19.05L100.45-19.05ZM127.79-23.15L146.04-23.15 146.04-2.65Q142.99-0.95 139.52-0.05 136.04 0.85 132.99 0.85L132.99 0.85Q126.54 0.85 122.04-1.63 117.54-4.1 115.29-8.55 113.04-13 113.04-18.9L113.04-18.9Q113.04-24.5 115.22-28.95 117.39-33.4 121.87-36 126.34-38.6 132.99-38.6L132.99-38.6Q136.29-38.6 138.57-37.98 140.84-37.35 143.69-36.1L143.69-36.1 143.69-28.15Q141.14-29.55 138.67-30.28 136.19-31 132.99-31L132.99-31Q129.64-31 127.17-29.48 124.69-27.95 123.42-25.23 122.14-22.5 122.14-19.05L122.14-19.05Q122.14-13.45 124.99-10.1 127.84-6.75 132.99-6.75L132.99-6.75Q135.29-6.75 137.24-7.45L137.24-7.45 137.24-15.45 127.79-15.45 127.79-23.15ZM162.04-7.2L178.34-7.2 178.34 0 153.04 0 153.04-37.9 178.09-37.9 178.09-30.7 162.04-30.7 162.04-22.65 175.59-22.65 175.59-15.45 162.04-15.45 162.04-7.2ZM194.34-7.2L210.64-7.2 210.64 0 185.34 0 185.34-37.9 210.39-37.9 210.39-30.7 194.34-30.7 194.34-22.65 207.89-22.65 207.89-15.45 194.34-15.45 194.34-7.2ZM238.49 0L228.29-13.5 226.64-11.6 226.64 0 217.64 0 217.64-37.9 226.64-37.9 226.64-24.5 238.34-37.9 249.49-37.9 234.04-20.1 249.74 0 238.49 0Z" opacity="1" transform="matrix(1,0,0,1,0,0)" fill="#ffffff" class="undefined-text-0" data-fill-palette-color="quaternary" id="text-0"></path></svg></g></svg></g></svg></g></svg></g><g></g></svg></g><defs></defs></svg><rect width="395.52" height="98.04889610851134" fill="none" stroke="none" visibility="hidden"></rect></g></svg></g></svg>